<?xml version="1.0" encoding="utf-8"?>
<!-- Generator: Adobe Illustrator 21.1.0, SVG Export Plug-In . SVG Version: 6.00 Build 0)  -->
<svg version="1.1" id="Layer_1" xmlns="http://www.w3.org/2000/svg" xmlns:xlink="http://www.w3.org/1999/xlink" x="0px" y="0px"
	 viewBox="0 0 403.2 98.5" style="enable-background:new 0 0 403.2 98.5;" xml:space="preserve">
<style type="text/css">
	.st0{fill:#CB00AF;}
	.st1{fill:#431048;}
</style>
<polygon class="st0" points="193.4,97.1 234.1,1.4 212.8,1.4 172.1,97.1 "/>
<path class="st1" d="M142.5,1.4h21.1v95.8h-21.1V58.7h-38.8v38.4H82.6V1.4h21.1v37.9h38.8V1.4z M242.6,97.1h21.1V60.1h45.7V40.9
	h-45.7V20.7h51.8V1.4h-72.9V97.1z M403.2,1.4h-79.3v19.3H353v76.4h21.1V20.7h29.1V1.4z M41.6,39.8C25,35.6,20.9,33.5,20.9,27.2V27
	c0-4.6,4.2-8.3,12.3-8.3c8.1,0,16.4,3.6,24.9,9.4l0,0l7.7-18.2C56.8,3.5,46,0,33.5,0C14,0,0,11.5,0,28.9v0.3
	c0,19,12.4,24.4,31.7,29.3c16,4.1,19.3,6.8,19.3,12.2v0.3c0,5.6-5.2,9-13.8,9c-10.9,0-20-4.5-28.6-11.6l-0.2,0.4L0.7,86.8
	c10.7,7.8,23.4,11.7,36.1,11.7C57.5,98.5,72,87.8,72,68.8v-0.3C72,51.8,61,44.9,41.6,39.8z"/>
</svg>
