<svg width="52px" height="59px" viewBox="0 0 52 59" version="1.1" xmlns="http://www.w3.org/2000/svg">
  <g stroke="none" stroke-width="1" fill="none" fill-rule="evenodd" stroke-linecap="round" stroke-linejoin="round">
    <path d="M1.1210857,17.9392224 C1.1210857,17.9392224 3.31218584,21.1921327 3.8920132,21.3331513 C4.94213844,21.5885501 9.94615542,23.8115182 9.94615542,23.8115182 C9.94615542,23.8115182 12.3603044,19.751982 16.8857278,19.751982 C21.4111512,19.751982 24.6555513,23.8115181 24.6555513,23.8115181 L22.3542975,11.7872224 C22.3542975,11.7872224 17.6582825,14.1397369 15.5061842,11.7872225 C13.3540858,9.43470801 13.8661023,6.56216731 15.5061842,5.64763333 C17.146266,4.73309934 25.1546875,6.88585327 25.1546875,6.88585327 L36.2466655,27.6070295 C36.2466655,27.6070295 30.7395854,30.9229643 26.5469413,33.4629364 C22.3542971,36.0029085 14.6834515,33.9073261 11.8125245,36.9917081 C8.94159757,40.0760902 5.10078006,47.9504703 5.62497812,57.0944141" stroke="#AAAAAA" stroke-width="2" transform="translate(18.683876, 31.257874) scale(-1, 1) translate(-18.683876, -31.257874) "></path>
    <path d="M43,23 C47.418278,23 51,18.0751322 51,12 C51,5.92486775 51,1 43,1 C35,1 35,5.92486775 35,12 C35,18.0751322 38.581722,23 43,23 Z" stroke="#AAAAAA" stroke-width="2"></path>
    <path d="M14.520357,28.2064673 C14.520357,28.2064673 19.5759966,34.4192509 25.4591436,30.2471298 C28.1878555,34.1232709 30.4006849,38.5846267 33.2486648,38.5846268 C36.0966446,38.584627 46.358474,36.2154076 46.358474,36.2154076 L46.4943627,33.2281542" stroke="#AAAAAA" stroke-width="2"></path>
    <path d="M33.6761175,35.4643381 L35,35.4643382" stroke="#AAAAAA" stroke-width="2"></path>
  </g>
</svg>
