<?xml version="1.0" standalone="no"?><!-- Generator: Gravit.io --><svg xmlns="http://www.w3.org/2000/svg" xmlns:xlink="http://www.w3.org/1999/xlink" style="isolation:isolate" viewBox="8.932 38.571 750.492 116.459" width="750.492" height="116.459"><path d=" M 82.84 123.021 L 82.84 123.021 L 82.84 123.021 Q 85.023 113.808 72.157 108.93 L 72.157 108.93 L 54.144 102.969 L 54.144 102.969 Q 22.813 91.357 24.872 70.994 L 24.872 70.994 L 24.872 70.994 Q 25.743 61.548 32.771 54.27 L 32.771 54.27 L 32.771 54.27 Q 39.8 46.992 52.305 42.849 L 52.305 42.849 L 52.305 42.849 Q 64.81 38.706 79.193 38.86 L 79.193 38.86 L 79.193 38.86 Q 99.026 39.169 111.037 48.576 L 111.037 48.576 L 111.037 48.576 Q 123.048 57.982 122.504 73.777 L 122.504 73.777 L 95.048 73.778 L 95.048 73.778 Q 95.691 66.113 91.227 61.855 L 91.227 61.855 L 91.227 61.855 Q 86.762 57.597 77.175 57.442 L 77.175 57.442 L 77.175 57.442 Q 67.776 57.288 60.735 60.966 L 60.735 60.966 L 60.735 60.966 Q 53.693 64.644 52.232 71.07 L 52.232 71.07 L 52.232 71.07 Q 50.255 79.51 65.658 84.464 L 65.658 84.464 L 77.982 88.335 L 85.067 91.045 L 85.067 91.045 Q 112.55 102.347 110.302 122.788 L 110.302 122.788 L 110.302 122.788 Q 109.23 132.776 102.155 140.015 L 102.155 140.015 L 102.155 140.015 Q 95.081 147.255 83.099 151.127 L 83.099 151.127 L 83.099 151.127 Q 71.117 154.998 56.83 154.767 L 56.83 154.767 L 56.83 154.767 Q 42.261 154.535 30.992 149.735 L 30.992 149.735 L 30.992 149.735 Q 19.723 144.936 13.997 136.187 L 13.997 136.187 L 13.997 136.187 Q 8.633 128.057 9.245 117.605 L 9.245 117.605 L 36.793 117.681 L 36.793 117.681 Q 35.062 136.031 58.28 136.34 L 58.28 136.34 L 58.28 136.34 Q 68.341 136.339 74.911 132.7 L 74.911 132.7 L 74.911 132.7 Q 81.482 129.06 82.84 123.021 Z  M 257.153 40.4 L 230.913 153.133 L 203.362 153.134 L 214.608 104.82 L 161.483 104.823 L 150.143 153.137 L 122.592 153.138 L 148.927 40.405 L 176.477 40.404 L 165.761 86.086 L 218.981 86.083 L 229.603 40.402 L 257.153 40.4 L 257.153 40.4 Z  M 310.519 154.678 L 310.519 154.678 L 310.519 154.678 Q 296.891 154.446 286.615 149.375 L 286.615 149.375 L 286.615 149.375 Q 276.339 144.304 270.491 134.742 L 270.491 134.742 L 270.491 134.742 Q 264.642 125.181 263.981 112.793 L 263.981 112.793 L 263.981 112.793 Q 263.234 100.095 267.884 85.694 L 267.884 85.694 L 267.884 85.694 Q 272.534 71.292 282.372 60.375 L 282.372 60.375 L 282.372 60.375 Q 292.209 49.458 305.26 44.037 L 305.26 44.037 L 305.26 44.037 Q 318.312 38.617 333.351 38.848 L 333.351 38.848 L 333.351 38.848 Q 347.168 39.08 357.395 44.228 L 357.395 44.228 L 357.395 44.228 Q 367.621 49.377 373.328 59.016 L 373.328 59.016 L 373.328 59.016 Q 379.034 68.655 379.604 80.888 L 379.604 80.888 L 379.604 80.888 Q 380.236 94.515 375.398 108.916 L 375.398 108.916 L 375.398 108.916 Q 370.559 123.318 360.825 133.848 L 360.825 133.848 L 360.825 133.848 Q 351.09 144.378 338.23 149.644 L 338.23 149.644 L 338.23 149.644 Q 325.371 154.909 310.519 154.678 Z  M 350.166 97.846 L 350.919 93.665 L 351.837 86.309 L 351.837 86.309 Q 353.089 72.527 347.843 65.405 L 347.843 65.405 L 347.843 65.405 Q 342.597 58.282 331.603 57.973 L 331.603 57.973 L 331.603 57.973 Q 314.406 57.509 304.004 70.517 L 304.004 70.517 L 304.004 70.517 Q 293.603 83.525 291.758 106.907 L 291.758 106.907 L 291.758 106.907 Q 290.509 120.611 295.701 128.005 L 295.701 128.005 L 295.701 128.005 Q 300.894 135.399 312.17 135.708 L 312.17 135.708 L 312.17 135.708 Q 326.92 136.25 336.832 126.223 L 336.832 126.223 L 336.832 126.223 Q 346.743 116.196 350.166 97.846 L 350.166 97.846 L 350.166 97.846 Z  M 448.354 113.481 L 422.404 113.405 L 413.045 153.124 L 385.495 153.126 L 411.829 40.393 L 459.782 40.469 L 459.782 40.469 Q 481.973 40.467 494.437 50.61 L 494.437 50.61 L 494.437 50.61 Q 506.902 60.752 504.935 77.089 L 504.935 77.089 L 504.935 77.089 Q 503.056 93.658 487.553 103.569 L 487.553 103.569 L 487.553 103.569 Q 472.049 113.48 448.354 113.481 L 448.354 113.481 L 448.354 113.481 Z  M 435.006 59.207 L 426.684 94.59 L 449.624 94.744 L 449.624 94.744 Q 460.719 94.744 468.16 90.02 L 468.16 90.02 L 468.16 90.02 Q 475.601 85.297 477.193 77.245 L 477.193 77.245 L 477.193 77.245 Q 478.785 69.192 474.333 64.392 L 474.333 64.392 L 474.333 64.392 Q 469.881 59.592 460.956 59.283 L 460.956 59.283 L 435.006 59.207 L 435.006 59.207 Z  M 626.228 93.884 L 616.937 138.869 L 616.937 138.869 Q 609.43 146.534 595.185 150.677 L 595.185 150.677 L 595.185 150.677 Q 580.941 154.82 563.175 154.588 L 563.175 154.588 L 563.175 154.588 Q 549.166 154.512 538.654 149.518 L 538.654 149.518 L 538.654 149.518 Q 528.141 144.525 522.241 135.157 L 522.241 135.157 L 522.241 135.157 Q 516.341 125.788 515.766 113.788 L 515.766 113.788 L 515.766 113.788 Q 515.077 102.638 519.225 87.579 L 519.225 87.579 L 519.225 87.579 Q 523.373 72.52 532.891 61.176 L 532.891 61.176 L 532.891 61.176 Q 542.409 49.833 555.512 44.219 L 555.512 44.219 L 555.512 44.219 Q 568.614 38.605 584.406 38.837 L 584.406 38.837 L 584.406 38.837 Q 605.837 39.146 617.749 48.784 L 617.749 48.784 L 617.749 48.784 Q 629.661 58.423 630.948 76.386 L 630.948 76.386 L 604.434 76.31 L 604.434 76.31 Q 603.613 66.864 598.637 62.373 L 598.637 62.373 L 598.637 62.373 Q 593.661 57.883 583.607 57.574 L 583.607 57.574 L 583.607 57.574 Q 566.222 57.11 555.913 70.157 L 555.913 70.157 L 555.913 70.157 Q 545.605 83.203 543.635 107.979 L 543.635 107.979 L 543.635 107.979 Q 542.396 121.219 548.108 128.497 L 548.108 128.497 L 548.108 128.497 Q 553.821 135.775 565.853 135.929 L 565.853 135.929 L 565.853 135.929 Q 579.856 136.238 589.86 130.431 L 589.86 130.431 L 594.906 110.997 L 569.895 110.998 L 573.948 93.887 L 626.228 93.884 L 626.228 93.884 Z  M 690.017 154.66 L 690.017 154.66 L 690.017 154.66 Q 676.388 154.428 666.112 149.358 L 666.112 149.358 L 666.112 149.358 Q 655.837 144.287 649.988 134.725 L 649.988 134.725 L 649.988 134.725 Q 644.139 125.163 643.478 112.775 L 643.478 112.775 L 643.478 112.775 Q 642.731 100.077 647.381 85.676 L 647.381 85.676 L 647.381 85.676 Q 652.032 71.275 661.869 60.357 L 661.869 60.357 L 661.869 60.357 Q 671.706 49.44 684.758 44.02 L 684.758 44.02 L 684.758 44.02 Q 697.809 38.599 712.848 38.831 L 712.848 38.831 L 712.848 38.831 Q 726.665 39.062 736.892 44.211 L 736.892 44.211 L 736.892 44.211 Q 747.119 49.359 752.825 58.998 L 752.825 58.998 L 752.825 58.998 Q 758.531 68.637 759.101 80.871 L 759.101 80.871 L 759.101 80.871 Q 759.734 94.497 754.895 108.899 L 754.895 108.899 L 754.895 108.899 Q 750.056 123.3 740.322 133.83 L 740.322 133.83 L 740.322 133.83 Q 730.587 144.361 717.728 149.626 L 717.728 149.626 L 717.728 149.626 Q 704.868 154.892 690.017 154.66 Z  M 729.663 97.828 L 730.416 93.647 L 731.334 86.292 L 731.334 86.292 Q 732.586 72.51 727.34 65.387 L 727.34 65.387 L 727.34 65.387 Q 722.094 58.264 711.1 57.955 L 711.1 57.955 L 711.1 57.955 Q 693.903 57.491 683.502 70.499 L 683.502 70.499 L 683.502 70.499 Q 673.1 83.507 671.255 106.89 L 671.255 106.89 L 671.255 106.89 Q 670.006 120.594 675.198 127.988 L 675.198 127.988 L 675.198 127.988 Q 680.391 135.382 691.667 135.691 L 691.667 135.691 L 691.667 135.691 Q 706.418 136.232 716.329 126.205 L 716.329 126.205 L 716.329 126.205 Q 726.24 116.178 729.663 97.828 L 729.663 97.828 L 729.663 97.828 Z " fill-rule="evenodd" fill="rgb(0,0,0)" vector-effect="non-scaling-stroke" stroke-width="0.5" stroke="rgb(0,0,0)" stroke-linejoin="miter" stroke-linecap="square" stroke-miterlimit="3"/></svg>
