<?xml version="1.0" encoding="utf-8"?>
<!-- Generator: Adobe Illustrator 23.0.0, SVG Export Plug-In . SVG Version: 6.00 Build 0)  -->
<svg version="1.1" id="Layer_1" xmlns="http://www.w3.org/2000/svg" xmlns:xlink="http://www.w3.org/1999/xlink" x="0px" y="0px"
	 viewBox="0 0 286.15 340.6" style="enable-background:new 0 0 286.15 340.6;" xml:space="preserve">
<style type="text/css">
	.st0{fill:#231F20;}
	.st1{fill:#231F20;stroke:#231F20;stroke-width:10;stroke-miterlimit:10;}
</style>
<g>
	<path class="st0" d="M274.15,340.6H12c-6.6,0-12-5.4-12-12L30,99.76c0-6.6,5.4-12,12-12h202.15c6.6,0,12,5.4,12,12l30,228.85
		C286.15,335.2,280.75,340.6,274.15,340.6z"/>
</g>
<g>
	<path class="st1" d="M83.65,103.14c-1.12,0-2.26-0.19-3.38-0.59c-5.2-1.87-7.9-7.59-6.03-12.79l28.05-78.14
		c1.43-3.97,5.19-6.62,9.41-6.62h66.2c4.37,0,8.23,2.83,9.54,7l24.59,78.14c1.66,5.27-1.27,10.88-6.54,12.54
		c-5.27,1.66-10.88-1.27-12.54-6.54L170.57,25h-51.83L93.07,96.52C91.6,100.6,87.75,103.14,83.65,103.14z"/>
</g>
</svg>
