<?xml version="1.0" encoding="utf-8"?>
<!-- Generator: Adobe Illustrator 23.0.0, SVG Export Plug-In . SVG Version: 6.00 Build 0)  -->
<svg version="1.1" id="Layer_1" xmlns="http://www.w3.org/2000/svg" xmlns:xlink="http://www.w3.org/1999/xlink" x="0px" y="0px"
	 viewBox="0 0 68 68" style="enable-background:new 0 0 68 68;" xml:space="preserve">
<style type="text/css">
	.st0{fill:#9E39CD;}
	.st1{fill:#FFFFFF;}
</style>
<g>
	<circle class="st0" cx="34" cy="34" r="34"/>
	<g>
		<path class="st1" d="M34,22.39c3.78,0,4.23,0.01,5.72,0.08c1.38,0.06,2.13,0.29,2.63,0.49c0.66,0.26,1.13,0.56,1.63,1.06
			c0.5,0.5,0.8,0.97,1.06,1.63c0.19,0.5,0.42,1.25,0.49,2.63c0.07,1.49,0.08,1.94,0.08,5.72c0,3.78-0.01,4.23-0.08,5.72
			c-0.06,1.38-0.29,2.13-0.49,2.63c-0.26,0.66-0.56,1.13-1.06,1.63c-0.5,0.5-0.97,0.8-1.63,1.06c-0.5,0.19-1.25,0.42-2.63,0.49
			c-1.49,0.07-1.94,0.08-5.72,0.08c-3.78,0-4.23-0.01-5.72-0.08c-1.38-0.06-2.13-0.29-2.63-0.49c-0.66-0.26-1.13-0.56-1.63-1.06
			c-0.5-0.5-0.8-0.97-1.06-1.63c-0.19-0.5-0.42-1.25-0.49-2.63c-0.07-1.49-0.08-1.94-0.08-5.72c0-3.78,0.01-4.23,0.08-5.72
			c0.06-1.38,0.29-2.13,0.49-2.63c0.26-0.66,0.56-1.13,1.06-1.63c0.5-0.5,0.97-0.8,1.63-1.06c0.5-0.19,1.25-0.42,2.63-0.49
			C29.77,22.4,30.22,22.39,34,22.39 M34,19.84c-3.85,0-4.33,0.02-5.84,0.09c-1.51,0.07-2.54,0.31-3.44,0.66
			c-0.93,0.36-1.72,0.85-2.51,1.63c-0.79,0.79-1.27,1.58-1.63,2.51c-0.35,0.9-0.59,1.93-0.66,3.44c-0.07,1.51-0.09,1.99-0.09,5.84
			c0,3.85,0.02,4.33,0.09,5.84c0.07,1.51,0.31,2.54,0.66,3.44c0.36,0.93,0.85,1.72,1.63,2.51c0.79,0.79,1.58,1.27,2.51,1.63
			c0.9,0.35,1.93,0.59,3.44,0.66c1.51,0.07,1.99,0.09,5.84,0.09s4.33-0.02,5.84-0.09c1.51-0.07,2.54-0.31,3.44-0.66
			c0.93-0.36,1.72-0.85,2.51-1.63c0.79-0.79,1.27-1.58,1.63-2.51c0.35-0.9,0.59-1.93,0.66-3.44c0.07-1.51,0.09-1.99,0.09-5.84
			s-0.02-4.33-0.09-5.84c-0.07-1.51-0.31-2.54-0.66-3.44c-0.36-0.93-0.85-1.72-1.63-2.51c-0.79-0.79-1.58-1.27-2.51-1.63
			c-0.9-0.35-1.93-0.59-3.44-0.66C38.33,19.85,37.85,19.84,34,19.84L34,19.84z"/>
		<path class="st1" d="M34,26.73c-4.02,0-7.27,3.26-7.27,7.27s3.26,7.27,7.27,7.27s7.27-3.26,7.27-7.27S38.02,26.73,34,26.73z
			 M34,38.72c-2.61,0-4.72-2.11-4.72-4.72s2.11-4.72,4.72-4.72c2.61,0,4.72,2.11,4.72,4.72S36.61,38.72,34,38.72z"/>
		<circle class="st1" cx="41.56" cy="26.44" r="1.7"/>
	</g>
</g>
</svg>
