<?xml version="1.0" standalone="no"?><!-- Generator: Gravit.io --><svg xmlns="http://www.w3.org/2000/svg" xmlns:xlink="http://www.w3.org/1999/xlink" style="isolation:isolate" viewBox="0.941 -58.75 907.124 204.444" width="907.124" height="204.444"><path d=" M 118.943 76.278 L 118.943 76.278 L 118.943 76.278 Q 121.357 65.942 107.128 60.471 L 107.128 60.471 L 87.206 53.784 L 87.206 53.784 Q 52.555 40.757 54.831 17.913 L 54.831 17.913 L 54.831 17.913 Q 55.795 7.317 63.568 -0.848 L 63.568 -0.848 L 63.568 -0.848 Q 71.342 -9.013 85.172 -13.661 L 85.172 -13.661 L 85.172 -13.661 Q 99.003 -18.308 114.91 -18.135 L 114.91 -18.135 L 114.91 -18.135 Q 136.844 -17.789 150.129 -7.236 L 150.129 -7.236 L 150.129 -7.236 Q 163.413 3.316 162.81 21.035 L 162.81 21.035 L 132.444 21.036 L 132.444 21.036 Q 133.156 12.437 128.218 7.661 L 128.218 7.661 L 128.218 7.661 Q 123.281 2.884 112.678 2.71 L 112.678 2.71 L 112.678 2.71 Q 102.282 2.537 94.495 6.663 L 94.495 6.663 L 94.495 6.663 Q 86.708 10.789 85.091 17.999 L 85.091 17.999 L 85.091 17.999 Q 82.905 27.466 99.94 33.024 L 99.94 33.024 L 113.57 37.366 L 121.406 40.406 L 121.406 40.406 Q 151.801 53.086 149.315 76.016 L 149.315 76.016 L 149.315 76.016 Q 148.13 87.221 140.305 95.342 L 140.305 95.342 L 140.305 95.342 Q 132.481 103.464 119.229 107.807 L 119.229 107.807 L 119.229 107.807 Q 105.978 112.151 90.177 111.891 L 90.177 111.891 L 90.177 111.891 Q 74.063 111.631 61.6 106.247 L 61.6 106.247 L 61.6 106.247 Q 49.137 100.862 42.804 91.048 L 42.804 91.048 L 42.804 91.048 Q 36.871 81.928 37.548 70.202 L 37.548 70.202 L 68.016 70.287 L 68.016 70.287 Q 66.102 90.873 91.781 91.219 L 91.781 91.219 L 91.781 91.219 Q 102.908 91.218 110.174 87.136 L 110.174 87.136 L 110.174 87.136 Q 117.441 83.053 118.943 76.278 Z  M 311.729 -16.408 L 282.708 110.058 L 252.238 110.059 L 264.676 55.86 L 205.92 55.863 L 193.378 110.062 L 162.908 110.064 L 192.034 -16.402 L 222.503 -16.403 L 210.651 34.843 L 269.511 34.84 L 281.259 -16.406 L 311.729 -16.408 L 311.729 -16.408 Z  M 370.751 111.791 L 370.751 111.791 L 370.751 111.791 Q 355.678 111.531 344.313 105.842 L 344.313 105.842 L 344.313 105.842 Q 332.949 100.154 326.48 89.427 L 326.48 89.427 L 326.48 89.427 Q 320.011 78.701 319.281 64.804 L 319.281 64.804 L 319.281 64.804 Q 318.454 50.559 323.597 34.403 L 323.597 34.403 L 323.597 34.403 Q 328.741 18.248 339.62 6 L 339.62 6 L 339.62 6 Q 350.5 -6.247 364.935 -12.328 L 364.935 -12.328 L 364.935 -12.328 Q 379.369 -18.408 396.002 -18.149 L 396.002 -18.149 L 396.002 -18.149 Q 411.283 -17.889 422.594 -12.113 L 422.594 -12.113 L 422.594 -12.113 Q 433.904 -6.338 440.215 4.476 L 440.215 4.476 L 440.215 4.476 Q 446.526 15.289 447.157 29.012 L 447.157 29.012 L 447.157 29.012 Q 447.856 44.299 442.505 60.455 L 442.505 60.455 L 442.505 60.455 Q 437.154 76.611 426.387 88.424 L 426.387 88.424 L 426.387 88.424 Q 415.621 100.237 401.399 106.144 L 401.399 106.144 L 401.399 106.144 Q 387.176 112.051 370.751 111.791 Z  M 414.599 48.036 L 415.432 43.345 L 416.447 35.094 L 416.447 35.094 Q 417.831 19.633 412.03 11.643 L 412.03 11.643 L 412.03 11.643 Q 406.228 3.652 394.069 3.305 L 394.069 3.305 L 394.069 3.305 Q 375.05 2.785 363.545 17.377 L 363.545 17.377 L 363.545 17.377 Q 352.041 31.97 350.002 58.201 L 350.002 58.201 L 350.002 58.201 Q 348.619 73.575 354.362 81.869 L 354.362 81.869 L 354.362 81.869 Q 360.105 90.164 372.577 90.511 L 372.577 90.511 L 372.577 90.511 Q 388.89 91.118 399.852 79.87 L 399.852 79.87 L 399.852 79.87 Q 410.813 68.621 414.599 48.036 L 414.599 48.036 L 414.599 48.036 Z  M 523.193 65.576 L 494.493 65.49 L 484.142 110.048 L 453.672 110.05 L 482.797 -16.416 L 535.832 -16.331 L 535.832 -16.331 Q 560.374 -16.332 574.16 -4.955 L 574.16 -4.955 L 574.16 -4.955 Q 587.946 6.423 585.77 24.75 L 585.77 24.75 L 585.77 24.75 Q 583.692 43.337 566.546 54.456 L 566.546 54.456 L 566.546 54.456 Q 549.399 65.575 523.193 65.576 L 523.193 65.576 L 523.193 65.576 Z  M 508.43 4.69 L 499.227 44.384 L 524.597 44.556 L 524.597 44.556 Q 536.868 44.556 545.098 39.257 L 545.098 39.257 L 545.098 39.257 Q 553.327 33.958 555.088 24.925 L 555.088 24.925 L 555.088 24.925 Q 556.849 15.892 551.925 10.507 L 551.925 10.507 L 551.925 10.507 Q 547.001 5.122 537.13 4.775 L 537.13 4.775 L 508.43 4.69 L 508.43 4.69 Z  M 719.917 43.592 L 709.642 94.056 L 709.642 94.056 Q 701.339 102.655 685.585 107.303 L 685.585 107.303 L 685.585 107.303 Q 669.83 111.951 650.182 111.691 L 650.182 111.691 L 650.182 111.691 Q 634.689 111.605 623.062 106.003 L 623.062 106.003 L 623.062 106.003 Q 611.436 100.401 604.91 89.892 L 604.91 89.892 L 604.91 89.892 Q 598.384 79.383 597.748 65.92 L 597.748 65.92 L 597.748 65.92 Q 596.987 53.412 601.575 36.518 L 601.575 36.518 L 601.575 36.518 Q 606.162 19.624 616.689 6.899 L 616.689 6.899 L 616.689 6.899 Q 627.215 -5.826 641.707 -12.124 L 641.707 -12.124 L 641.707 -12.124 Q 656.198 -18.421 673.663 -18.162 L 673.663 -18.162 L 673.663 -18.162 Q 697.365 -17.815 710.54 -7.002 L 710.54 -7.002 L 710.54 -7.002 Q 723.714 3.811 725.137 23.962 L 725.137 23.962 L 695.813 23.876 L 695.813 23.876 Q 694.905 13.28 689.402 8.242 L 689.402 8.242 L 689.402 8.242 Q 683.898 3.205 672.779 2.858 L 672.779 2.858 L 672.779 2.858 Q 653.552 2.338 642.151 16.974 L 642.151 16.974 L 642.151 16.974 Q 630.75 31.61 628.571 59.404 L 628.571 59.404 L 628.571 59.404 Q 627.201 74.257 633.518 82.421 L 633.518 82.421 L 633.518 82.421 Q 639.836 90.585 653.143 90.758 L 653.143 90.758 L 653.143 90.758 Q 668.631 91.105 679.695 84.59 L 679.695 84.59 L 685.276 62.789 L 657.614 62.79 L 662.097 43.594 L 719.917 43.592 L 719.917 43.592 Z  M 790.466 111.771 L 790.466 111.771 L 790.466 111.771 Q 775.393 111.511 764.028 105.823 L 764.028 105.823 L 764.028 105.823 Q 752.664 100.134 746.195 89.408 L 746.195 89.408 L 746.195 89.408 Q 739.726 78.681 738.996 64.784 L 738.996 64.784 L 738.996 64.784 Q 738.169 50.539 743.312 34.384 L 743.312 34.384 L 743.312 34.384 Q 748.455 18.228 759.335 5.981 L 759.335 5.981 L 759.335 5.981 Q 770.215 -6.267 784.65 -12.347 L 784.65 -12.347 L 784.65 -12.347 Q 799.084 -18.428 815.717 -18.168 L 815.717 -18.168 L 815.717 -18.168 Q 830.998 -17.909 842.309 -12.133 L 842.309 -12.133 L 842.309 -12.133 Q 853.619 -6.358 859.93 4.456 L 859.93 4.456 L 859.93 4.456 Q 866.241 15.269 866.871 28.993 L 866.871 28.993 L 866.871 28.993 Q 867.571 44.28 862.22 60.435 L 862.22 60.435 L 862.22 60.435 Q 856.868 76.591 846.102 88.404 L 846.102 88.404 L 846.102 88.404 Q 835.336 100.217 821.113 106.124 L 821.113 106.124 L 821.113 106.124 Q 806.891 112.031 790.466 111.771 Z  M 834.314 48.016 L 835.147 43.326 L 836.162 35.074 L 836.162 35.074 Q 837.546 19.614 831.745 11.623 L 831.745 11.623 L 831.745 11.623 Q 825.943 3.632 813.783 3.285 L 813.783 3.285 L 813.783 3.285 Q 794.764 2.765 783.26 17.358 L 783.26 17.358 L 783.26 17.358 Q 771.756 31.95 769.716 58.181 L 769.716 58.181 L 769.716 58.181 Q 768.334 73.555 774.077 81.85 L 774.077 81.85 L 774.077 81.85 Q 779.82 90.144 792.292 90.491 L 792.292 90.491 L 792.292 90.491 Q 808.605 91.098 819.566 79.85 L 819.566 79.85 L 819.566 79.85 Q 830.528 68.601 834.314 48.016 L 834.314 48.016 L 834.314 48.016 Z " fill-rule="evenodd" fill="rgb(0,0,0)" vector-effect="non-scaling-stroke" stroke-width="0.5" stroke="rgb(0,0,0)" stroke-linejoin="miter" stroke-linecap="square" stroke-miterlimit="3"/></svg>
