<?xml version="1.0" encoding="utf-8"?>
<!-- Generator: Adobe Illustrator 23.0.0, SVG Export Plug-In . SVG Version: 6.00 Build 0)  -->
<svg version="1.1" id="Layer_1" xmlns="http://www.w3.org/2000/svg" xmlns:xlink="http://www.w3.org/1999/xlink" x="0px" y="0px"
	 viewBox="0 0 68 68" style="enable-background:new 0 0 68 68;" xml:space="preserve">
<style type="text/css">
	.st0{fill:#2BA3EF;}
	.st1{fill:#FFFFFF;}
</style>
<g>
	<circle class="st0" cx="34" cy="34" r="34"/>
	<g id="White">
		<path class="st1" d="M28.29,46.5c11.6,0,17.95-9.62,17.95-17.95c0-0.27,0-0.54-0.01-0.81c1.23-0.89,2.3-2,3.15-3.27
			c-1.13,0.5-2.35,0.84-3.63,1c1.3-0.77,2.3-2.02,2.78-3.49c-1.22,0.73-2.57,1.24-4.01,1.53c-1.14-1.23-2.79-1.99-4.6-1.99
			c-3.48,0-6.31,2.83-6.31,6.31c0,0.49,0.06,0.97,0.16,1.44c-5.24-0.27-9.89-2.78-13-6.59c-0.54,0.93-0.85,2.02-0.85,3.17
			c0,2.19,1.12,4.12,2.8,5.25c-1.03-0.04-2-0.32-2.87-0.79c0,0.02,0,0.05,0,0.09c0,3.05,2.18,5.61,5.06,6.19
			c-0.53,0.15-1.08,0.22-1.66,0.22c-0.41,0-0.8-0.04-1.18-0.11c0.8,2.51,3.14,4.33,5.89,4.38c-2.16,1.7-4.88,2.71-7.84,2.71
			c-0.5,0-1.01-0.02-1.5-0.09C21.42,45.45,24.74,46.5,28.29,46.5"/>
	</g>
</g>
</svg>
